HIERARCHY
ROOT Hips
{
	OFFSET 0.000000 0.000000 0.000000
	CHANNELS 6 Xposition Yposition Zposition Xrotation Yrotation Zrotation
	JOINT LeftUpLeg_virtual
	{
		OFFSET 0.000000 0.000000 0.000000
		CHANNELS 3 Xrotation Yrotation Zrotation
		JOINT LeftUpLeg
		{
			OFFSET 11.394100 -6.187798 -0.413800
			CHANNELS 3 Xrotation Yrotation Zrotation
			JOINT LeftLeg
			{
				OFFSET 0.430247 -32.302673 3.732800
				CHANNELS 3 Xrotation Yrotation Zrotation
				JOINT LeftFoot
				{
					OFFSET -0.430247 -48.264931 -6.423300
					CHANNELS 3 Xrotation Yrotation Zrotation
					JOINT LeftToeBase
					{
						OFFSET 4.230900 -16.068199 23.438400
						CHANNELS 3 Xrotation Yrotation Zrotation
						JOINT LeftToe_End
						{
							OFFSET 4.510700 0.695400 19.974600
							CHANNELS 3 Xrotation Yrotation Zrotation
							End Site
							{
								OFFSET 0 0 0
							}
						}
					}
				}
			}
		}
	}
	JOINT RightUpLeg_virtual
	{
		OFFSET 0.000000 0.000000 0.000000
		CHANNELS 3 Xrotation Yrotation Zrotation
		JOINT RightUpLeg
		{
			OFFSET -11.333700 -6.187798 -0.413800
			CHANNELS 3 Xrotation Yrotation Zrotation
			JOINT RightLeg
			{
				OFFSET -0.430392 -32.302628 3.733000
				CHANNELS 3 Xrotation Yrotation Zrotation
				JOINT RightFoot
				{
					OFFSET 0.430392 -48.264973 -6.423500
					CHANNELS 3 Xrotation Yrotation Zrotation
					JOINT RightToeBase
					{
						OFFSET -4.230900 -16.068199 23.438400
						CHANNELS 3 Xrotation Yrotation Zrotation
						JOINT RightToe_End
						{
							OFFSET -4.510700 0.695400 19.974600
							CHANNELS 3 Xrotation Yrotation Zrotation
							End Site
							{
								OFFSET 0 0 0
							}
						}
					}
				}
			}
		}
	}
	JOINT Spine_virtual
	{
		OFFSET 0.000000 0.000000 0.000000
		CHANNELS 3 Xrotation Yrotation Zrotation
		JOINT Spine
		{
			OFFSET -0.002400 12.777504 0.315300
			CHANNELS 3 Xrotation Yrotation Zrotation
			JOINT Spine1
			{
				OFFSET -0.002067 5.816869 0.032633
				CHANNELS 3 Xrotation Yrotation Zrotation
				JOINT Spine1_split
				{
					OFFSET -0.002067 5.816869 0.032633
					CHANNELS 3 Xrotation Yrotation Zrotation
					JOINT Spine2
					{
						OFFSET -0.002067 5.816869 0.032633
						CHANNELS 3 Xrotation Yrotation Zrotation
						JOINT Neck_virtual
						{
							OFFSET 0.000000 0.000000 0.000000
							CHANNELS 3 Xrotation Yrotation Zrotation
							JOINT Neck
							{
								OFFSET -0.003700 21.199493 -0.826900
								CHANNELS 3 Xrotation Yrotation Zrotation
								JOINT Head
								{
									OFFSET 0.000000 20.442200 4.834800
									CHANNELS 3 Xrotation Yrotation Zrotation
									JOINT HeadTop_End
									{
										OFFSET 0.000000 34.668396 4.968400
										CHANNELS 3 Xrotation Yrotation Zrotation
										End Site
										{
											OFFSET 0 0 0
										}
									}
								}
							}
						}
						JOINT LeftShoulder_virtual
						{
							OFFSET 0.000000 0.000000 0.000000
							CHANNELS 3 Xrotation Yrotation Zrotation
							JOINT LeftShoulder
							{
								OFFSET 3.288150 8.794197 -1.372250
								CHANNELS 3 Xrotation Yrotation Zrotation
								JOINT LeftShoulder_split
								{
									OFFSET 3.288150 8.794197 -1.372250
									CHANNELS 3 Xrotation Yrotation Zrotation
									JOINT LeftArm
									{
										OFFSET 11.953299 -2.279007 -0.146200
										CHANNELS 3 Xrotation Yrotation Zrotation
										JOINT LeftForeArm
										{
											OFFSET 18.448900 0.000000 0.000000
											CHANNELS 3 Xrotation Yrotation Zrotation
											JOINT LeftHand
											{
												OFFSET 29.527798 0.000000 0.000000
												CHANNELS 3 Xrotation Yrotation Zrotation
												End Site
												{
													OFFSET 0 0 0
												}
											}
										}
									}
								}
							}
						}
						JOINT RightShoulder_virtual
						{
							OFFSET 0.000000 0.000000 0.000000
							CHANNELS 3 Xrotation Yrotation Zrotation
							JOINT RightShoulder
							{
								OFFSET -3.249400 8.794197 -1.372250
								CHANNELS 3 Xrotation Yrotation Zrotation
								JOINT RightShoulder_split
								{
									OFFSET -3.249400 8.794197 -1.372250
									CHANNELS 3 Xrotation Yrotation Zrotation
									JOINT RightArm
									{
										OFFSET -11.953299 -2.279007 -0.146200
										CHANNELS 3 Xrotation Yrotation Zrotation
										JOINT RightForeArm
										{
											OFFSET -18.448900 0.000000 0.000000
											CHANNELS 3 Xrotation Yrotation Zrotation
											JOINT RightHand
											{
												OFFSET -29.527802 0.000000 0.000000
												CHANNELS 3 Xrotation Yrotation Zrotation
												End Site
												{
													OFFSET 0 0 0
												}
											}
										}
									}
								}
							}
						}
					}
				}
			}
		}
	}
}
MOTION
Frames: 9
Frame Time: 0.03333333
52.011101 98.658974 151.238632 0.000000 0.000000 0.000000 -11.792550 50.228453 13.078313 -26.303723 2.239155 -14.023819 28.573186 11.206276 2.165132 22.538690 -3.484184 17.117578 -31.493340 2.636589 3.171157 0.000000 0.000000 0.000000 -8.922056 50.720141 11.343223 -29.133113 13.817714 -1.219176 42.684547 -0.261806 1.843823 24.187790 -15.265772 4.546571 -33.472957 15.339239 -2.287240 0.000000 0.000000 0.000000 -13.493766 52.851775 13.531341 5.693388 -4.712741 -2.827238 -1.079359 -1.397564 1.166490 0.022358 0.181236 -0.024704 0.000000 0.000000 0.000000 0.039405 1.632305 2.095115 -11.565661 6.219539 7.190682 -7.880227 -12.537184 -28.726703 0.000000 0.000000 0.000000 -2.578632 0.330046 1.281789 1.207830 -1.558107 -5.580851 0.293088 -0.888516 -2.823158 13.038148 6.857790 -62.408982 20.132106 -38.203843 7.572924 0.000000 0.000000 0.000000 -1.018198 -0.181249 1.930681 0.761373 1.985126 0.299701 -17.122188 -3.177198 1.809448 13.904970 3.168571 62.493834 -0.522164 19.978414 13.275371 0.000000 0.000000 0.000000 
53.541187 99.930923 153.988602 0.000000 0.000000 0.000000 -12.450329 53.774107 13.459045 -21.770340 -0.269917 -15.309734 27.423334 11.516489 2.759194 19.139619 -2.424589 18.002118 -30.914427 2.890865 1.606213 0.000000 0.000000 0.000000 -9.061395 53.227842 11.222487 -35.016269 14.572087 -1.184675 38.722948 -1.597471 1.999491 26.143949 -15.392636 2.122296 -25.376535 15.233508 -3.233552 0.000000 0.000000 0.000000 -14.376220 55.516754 14.160479 6.543019 -5.407004 -2.597945 -1.497943 -1.755827 1.356088 0.051943 0.132337 -0.052394 0.000000 0.000000 0.000000 -0.005736 1.247744 2.304063 -11.880840 6.086239 7.282173 -9.274856 -11.313011 -28.394804 0.000000 0.000000 0.000000 -2.773555 -0.116601 1.380637 1.234298 -2.268795 -5.386279 0.069387 0.475064 -2.688476 11.705236 3.712605 -61.353848 20.070902 -37.592603 7.922184 0.000000 0.000000 0.000000 -1.330917 -0.569814 2.190528 0.650973 1.356822 1.337544 -17.528958 -3.350100 0.988865 14.344408 1.656295 63.526763 0.327997 19.583720 12.369800 0.000000 0.000000 0.000000 
55.184006 101.260590 156.523743 0.000000 0.000000 0.000000 -12.513898 57.126681 13.631079 -17.261034 -1.604510 -15.751769 25.160071 11.403216 3.081204 15.487978 -2.427994 19.300489 -29.285348 3.080214 0.201873 0.000000 0.000000 0.000000 -9.128362 56.166288 11.220104 -38.805559 14.068705 -1.642334 32.683107 -2.268609 1.585046 28.922067 -14.495297 1.369294 -18.029954 15.433825 -6.129562 0.000000 0.000000 0.000000 -15.393372 58.323129 15.034587 7.059187 -6.052779 -2.676702 -1.825567 -2.092585 1.539905 0.104721 0.063183 -0.071176 0.000000 0.000000 0.000000 -0.132353 0.911168 2.479898 -11.712717 5.895021 7.635770 -9.933579 -10.544779 -27.785631 0.000000 0.000000 0.000000 -2.899260 -0.519964 1.469852 1.271900 -2.918731 -5.236442 -0.211675 1.541319 -2.445109 10.102002 0.667792 -60.352146 19.988229 -36.999333 8.178845 0.000000 0.000000 0.000000 -1.513017 -0.904662 2.401848 0.604982 0.747209 2.825465 -17.962660 -3.485692 0.230592 14.841934 -0.082960 64.097016 1.018902 19.537047 11.714694 0.000000 0.000000 0.000000 
56.936615 102.482582 158.776566 0.000000 0.000000 0.000000 -12.152876 60.261420 13.696018 -13.417799 -2.347819 -15.246413 22.504732 9.853105 3.110739 13.849531 -3.921992 19.557244 -29.394330 2.987412 -0.397445 0.000000 0.000000 0.000000 -9.519993 59.760638 11.655247 -40.633489 12.445659 -2.511184 25.641189 -2.371672 0.857500 32.138219 -12.762272 2.150170 -11.937682 15.668990 -10.874857 0.000000 0.000000 0.000000 -16.244031 61.352181 16.008326 7.250090 -6.666471 -3.106554 -2.018963 -2.411816 1.756758 0.133159 -0.002053 -0.062645 0.000000 0.000000 0.000000 -0.286842 0.651477 2.647847 -11.100622 5.667374 8.289990 -9.977621 -10.025328 -26.825086 0.000000 0.000000 0.000000 -2.982874 -0.850460 1.606656 1.295182 -3.518050 -5.054632 -0.438519 2.207684 -2.176348 8.318469 -1.915406 -59.446169 20.009024 -37.055115 8.429277 0.000000 0.000000 0.000000 -1.608067 -1.185427 2.616510 0.656643 0.089935 4.599089 -18.356729 -3.537124 -0.320448 15.472048 -1.954420 64.012273 1.461741 19.842220 11.361253 0.000000 0.000000 0.000000 
58.638840 103.448792 160.932281 0.000000 0.000000 0.000000 -11.425320 63.088470 13.501238 -10.243588 -2.796301 -14.062678 20.351168 7.412809 2.598059 14.777821 -6.194802 19.509208 -31.999071 2.704596 -0.802759 0.000000 0.000000 0.000000 -10.258778 63.710413 12.436876 -41.074114 9.938980 -3.690031 18.972104 -2.099965 0.093213 35.618969 -10.265828 4.474149 -7.921889 15.912947 -16.844805 0.000000 0.000000 0.000000 -16.798717 64.372771 16.913936 7.156391 -7.244964 -3.780011 -2.075938 -2.706543 2.055113 0.125864 -0.049898 -0.042061 0.000000 0.000000 0.000000 -0.423466 0.453096 2.828944 -10.224082 5.461508 9.146402 -9.617268 -9.684122 -25.566667 0.000000 0.000000 0.000000 -3.039976 -1.114076 1.826656 1.302416 -4.088495 -4.778841 -0.470481 2.371989 -1.914468 6.596824 -3.798335 -58.608999 20.214595 -38.000359 8.745824 0.000000 0.000000 0.000000 -1.636657 -1.428515 2.881466 0.807072 -0.637283 6.488677 -18.602853 -3.370435 -0.743953 16.174218 -3.769581 63.268677 1.639414 20.452880 11.282760 0.000000 0.000000 0.000000 
60.344398 104.010063 163.268585 0.000000 0.000000 0.000000 -10.626921 65.738426 13.171248 -7.789599 -2.998407 -12.286481 19.086110 4.714223 1.688325 17.432154 -8.585074 19.623898 -36.897232 2.586223 -1.541937 0.000000 0.000000 0.000000 -11.081739 67.320851 13.310261 -40.911583 7.004526 -4.918822 13.547031 -1.807277 -0.564785 38.576820 -7.557815 7.711079 -5.614364 16.162647 -23.095007 0.000000 0.000000 0.000000 -16.967303 67.044263 17.565781 6.862624 -7.764974 -4.544098 -2.006166 -2.982471 2.443810 0.138307 -0.082441 -0.032779 0.000000 0.000000 0.000000 -0.507692 0.302369 3.054216 -9.223917 5.344646 10.071656 -9.242805 -9.456664 -24.197654 0.000000 0.000000 0.000000 -3.110981 -1.333576 2.138219 1.304907 -4.623695 -4.401079 -0.520366 2.082299 -1.816898 5.095804 -4.789535 -57.956307 20.476045 -39.416912 9.030851 0.000000 0.000000 0.000000 -1.659482 -1.666531 3.221319 1.078026 -1.365497 8.306220 -18.688806 -3.214157 -0.912016 16.838897 -5.363902 62.052077 1.588496 21.331878 11.379134 0.000000 0.000000 0.000000 
62.065659 104.060547 165.909454 0.000000 0.000000 0.000000 -10.350550 68.245590 13.176008 -5.771512 -2.955934 -10.215147 18.624707 2.503467 0.815397 19.802996 -10.490014 19.736598 -42.734615 2.981369 -2.871236 0.000000 0.000000 0.000000 -11.801690 70.114446 14.030952 -40.726697 4.248479 -5.902307 9.870738 -1.923921 -1.115576 40.269805 -5.704048 10.518514 -3.351260 16.194338 -28.861012 0.000000 0.000000 0.000000 -17.186644 69.211270 18.196790 6.472466 -8.255793 -5.246916 -1.899181 -3.210855 2.884787 0.125112 -0.074328 -0.048570 0.000000 0.000000 0.000000 -0.509469 0.147551 3.343610 -8.208569 5.356161 10.828146 -8.993979 -9.469154 -22.919381 0.000000 0.000000 0.000000 -3.220813 -1.530335 2.511856 1.333657 -4.960660 -3.950093 -0.631146 1.449166 -1.924724 3.914079 -4.936799 -57.588719 20.753793 -40.914534 9.294289 0.000000 0.000000 0.000000 -1.737595 -1.914483 3.630094 1.405488 -2.003573 9.871847 -18.607582 -3.098445 -0.820302 17.302577 -6.529432 60.653084 1.378564 22.381314 11.512002 0.000000 0.000000 0.000000 
63.763321 103.632446 168.853882 0.000000 0.000000 0.000000 -10.537578 70.223306 13.437082 -3.086662 -2.621138 -8.420019 18.378985 1.822209 0.094163 19.274060 -11.302534 20.450980 -47.549902 4.033946 -4.816829 0.000000 0.000000 0.000000 -12.051277 71.852292 14.319416 -40.935089 2.276265 -6.523912 8.471269 -2.609304 -1.542508 40.731341 -5.141208 12.323784 -0.680200 15.895790 -33.445090 0.000000 0.000000 0.000000 -17.434691 70.572438 18.675682 5.931232 -8.696665 -5.774902 -1.842469 -3.388945 3.300388 0.113003 -0.053003 -0.067157 0.000000 0.000000 0.000000 -0.484923 -0.027498 3.666634 -7.309675 5.486082 11.193342 -8.947806 -10.020066 -21.898758 0.000000 0.000000 0.000000 -3.410777 -1.716511 2.892966 1.395409 -4.987922 -3.485113 -0.787697 0.613448 -2.151919 3.178367 -4.400541 -57.623854 20.981436 -42.045852 9.479732 0.000000 0.000000 0.000000 -1.909869 -2.169512 4.042071 1.760475 -2.521898 11.074126 -18.376726 -3.114193 -0.687750 17.456212 -7.246169 59.503549 1.128494 23.443701 11.549214 0.000000 0.000000 0.000000 
65.418114 102.832703 171.950027 0.000000 0.000000 0.000000 -11.617348 71.486604 14.357556 0.104987 -2.470495 -6.891796 18.499432 1.612115 -0.238510 16.275649 -11.572668 20.165505 -51.028002 5.181091 -5.956943 0.000000 0.000000 0.000000 -11.926167 72.476025 14.211885 -42.019064 1.749682 -6.635688 9.599825 -3.560618 -1.808663 40.546626 -5.442840 13.284430 1.394711 15.546216 -36.399963 0.000000 0.000000 0.000000 -17.385797 71.278085 18.652497 5.276598 -9.044842 -6.064971 -1.898185 -3.503695 3.597199 0.106011 -0.026434 -0.098100 0.000000 0.000000 0.000000 -0.515527 -0.207870 3.992748 -6.551035 5.686439 11.043218 -8.995370 -11.257785 -21.249371 0.000000 0.000000 0.000000 -3.681594 -1.886976 3.198355 1.483196 -4.591368 -3.113203 -0.908712 -0.127437 -2.337345 3.012316 -3.478348 -58.135046 21.080706 -42.540710 9.477716 0.000000 0.000000 0.000000 -2.191292 -2.413179 4.380558 2.112710 -2.910713 11.783039 -18.111601 -3.314486 -0.381047 17.447691 -7.572881 58.975733 0.946584 24.315460 11.374739 0.000000 0.000000 0.000000 
